<svg width="23" height="26" viewBox="0 0 23 26" fill="none" xmlns="http://www.w3.org/2000/svg">
<path fill-rule="evenodd" clip-rule="evenodd" d="M4.99156 0.408752C5.24469 0.408752 5.44989 0.613955 5.44989 0.867086V1.4898H17.9191V0.867086C17.9191 0.613955 18.1243 0.408752 18.3775 0.408752C18.6306 0.408752 18.8358 0.613955 18.8358 0.867086V1.4898H21.0063C22.0188 1.4898 22.8396 2.31061 22.8396 3.32313V16.7662V17.6829H22.7402V18.2281C22.7402 18.7923 22.5321 19.3366 22.1557 19.7569L18.1501 24.2298C17.7154 24.7153 17.0946 24.9927 16.443 24.9927H16.1463V25.157H15.2297H2.36312C1.3506 25.157 0.529785 24.3362 0.529785 23.3236V3.32313C0.529785 2.31061 1.3506 1.4898 2.36312 1.4898H4.53323V0.867086C4.53323 0.613955 4.73843 0.408752 4.99156 0.408752ZM17.9797 17.6829H21.8236V18.2281C21.8236 18.5666 21.6987 18.8932 21.4729 19.1454L17.4673 23.6183C17.2064 23.9096 16.8339 24.076 16.443 24.076H16.1463V19.5162C16.1463 18.5037 16.9671 17.6829 17.9797 17.6829ZM4.53323 2.40646H2.36312C1.85686 2.40646 1.44645 2.81687 1.44645 3.32313V8.55046C1.50654 8.52152 1.57392 8.50531 1.64508 8.50531H21.724C21.7953 8.50531 21.8628 8.5216 21.923 8.55066V3.32313C21.923 2.81687 21.5126 2.40646 21.0063 2.40646H18.8358V3.35837C18.8358 3.6115 18.6306 3.8167 18.3775 3.8167C18.1243 3.8167 17.9191 3.6115 17.9191 3.35837V2.40646H5.44989V3.35837C5.44989 3.6115 5.24469 3.8167 4.99156 3.8167C4.73843 3.8167 4.53323 3.6115 4.53323 3.35837V2.40646ZM21.923 9.37662V16.7662H17.9797C16.4609 16.7662 15.2297 17.9974 15.2297 19.5162V24.2225V24.2403H2.36312C1.85686 24.2403 1.44645 23.8299 1.44645 23.3236V9.37681C1.50654 9.40576 1.57392 9.42197 1.64508 9.42197H21.724C21.7953 9.42197 21.8628 9.40568 21.923 9.37662Z" fill="black"/>
</svg>
