<svg width="164" height="137" viewBox="0 0 164 137" fill="none" xmlns="http://www.w3.org/2000/svg">
<path d="M20.5195 38.474L142.519 38.474V98.474H20.5195L20.5195 78.3047C25.6514 77.3844 29.5195 72.8272 29.5195 67.474C29.5195 62.1843 25.6079 57.8082 20.5195 57.0803V38.474Z" stroke="black" stroke-width="4"/>
<path d="M83.5755 68.6127C84.0889 68.5908 84.367 68.0018 84.0577 67.5914L68.503 46.9537C68.4322 46.8597 68.3367 46.7872 68.2272 46.7441L63.6184 44.93C63.0641 44.7118 62.5398 45.3049 62.8243 45.8283L75.2097 68.6127C75.326 68.8267 75.554 68.9558 75.7974 68.9454L83.5755 68.6127Z" fill="black" stroke="black" stroke-width="0.708831"/>
<path d="M61.2802 74.4006C61.7687 74.3164 61.9787 73.7318 61.6556 73.356L53.4556 63.8196C53.3478 63.6941 53.1955 63.6155 53.0308 63.6003L53.0635 63.2474L53.0308 63.6003L43.877 62.7518C43.342 62.7022 42.989 63.2957 43.2881 63.742L51.3215 75.7333C51.4617 75.9425 51.7117 76.0497 51.9599 76.0069L61.2802 74.4006Z" fill="black" stroke="black" stroke-width="0.708831"/>
<path d="M117.92 57.6786C120.611 56.9752 123.37 58.5522 124.129 61.2274C124.911 63.9839 123.274 66.8447 120.501 67.567L65.6877 81.8444L54.0237 79.8593L50.987 75.179L117.92 57.6786Z" fill="black" stroke="black" stroke-width="0.708831"/>
</svg>
