<svg width="145" height="145" viewBox="0 0 145 145" fill="none" xmlns="http://www.w3.org/2000/svg">
<path d="M40.273 102.43L125.439 102.43" stroke="black" stroke-width="2" stroke-linecap="round"/>
<path d="M74.0302 72.4906C74.7021 72.7204 75.3561 72.1021 75.1643 71.4184L65.5172 37.0352C65.4733 36.8786 65.3869 36.7373 65.2676 36.6267L60.2472 31.9749C59.6435 31.4155 58.6704 31.9154 58.7735 32.732L63.2621 68.2851C63.3042 68.6191 63.5329 68.8999 63.8514 69.0088L74.0302 72.4906Z" fill="black" stroke="black" stroke-width="0.97949"/>
<path d="M42.4231 68.733C43.0941 68.8702 43.6584 68.2232 43.4314 67.5771L37.6705 51.1802C37.5948 50.9645 37.4382 50.7868 37.2339 50.6843L25.878 44.9907C25.2143 44.6579 24.4617 45.2444 24.6222 45.9693L28.9347 65.4423C29.0099 65.782 29.2779 66.0457 29.6188 66.1154L42.4231 68.733Z" fill="black" stroke="black" stroke-width="0.97949"/>
<path d="M123.734 75.6813C127.55 76.1283 130.309 79.545 129.941 83.3699C129.562 87.3113 126.017 90.1706 122.085 89.7064L44.3544 80.53L30.3388 72.1114L28.7827 64.5607L123.734 75.6813Z" fill="black" stroke="black" stroke-width="0.97949"/>
</svg>
