<svg width="145" height="145" viewBox="0 0 145 145" fill="none" xmlns="http://www.w3.org/2000/svg">
<path d="M73.9162 71.5591C74.5653 71.271 74.6247 70.3729 74.0193 70.0018L43.5739 51.3378C43.4352 51.2528 43.2758 51.2078 43.1131 51.2078L36.2689 51.2078C35.4458 51.2078 35.0718 52.2359 35.7024 52.7648L63.1592 75.793C63.4171 76.0094 63.7757 76.0599 64.0833 75.9234L73.9162 71.5591Z" fill="black" stroke="black" stroke-width="0.97949"/>
<path d="M48.1777 90.2851C48.7632 89.9297 48.7374 89.0716 48.1317 88.7519L32.7616 80.6399C32.5594 80.5332 32.3238 80.5092 32.1043 80.5729L19.9047 84.1148C19.1917 84.3218 19.0383 85.2635 19.6487 85.6861L36.0472 97.0389C36.3332 97.237 36.709 97.2482 37.0064 97.0677L48.1777 90.2851Z" fill="black" stroke="black" stroke-width="0.97949"/>
<path d="M112.544 40.1176C115.647 37.8515 119.992 38.483 122.322 41.5386C124.723 44.6872 124.066 49.1941 120.866 51.5262L57.6124 97.6259L41.6099 100.977L35.3365 96.4956L112.544 40.1176Z" fill="black" stroke="black" stroke-width="0.97949"/>
<path d="M20 110.948H80" stroke="black" stroke-width="2" stroke-linecap="round"/>
</svg>
