<svg width="19" height="28" viewBox="0 0 19 28" fill="none" xmlns="http://www.w3.org/2000/svg">
<path d="M11.7669 25.0768L11.7627 25.0849L11.7588 25.0933C11.1514 26.4048 10.5719 26.9387 10.1105 27.1049C9.67539 27.2616 9.237 27.126 8.79289 26.7851C8.34735 26.4432 7.95716 25.9367 7.67216 25.4976C7.53162 25.2811 7.42063 25.0872 7.34505 24.9479C7.30731 24.8784 7.27856 24.8227 7.25951 24.7851C7.24999 24.7662 7.24291 24.7519 7.23835 24.7426L7.23343 24.7325L7.23242 24.7304L7.23238 24.7303L7.23248 24.7303L7.22821 24.7218L2.42428 15.2399L2.42425 15.2399C0.830772 12.0958 1.05944 8.57692 2.4961 5.85259C3.93238 3.12898 6.55643 1.2291 9.74589 1.26055L9.74603 1.26055C12.9358 1.2908 15.5307 3.24157 16.9251 5.99318C18.3197 8.74542 18.4936 12.268 16.8521 15.3795L16.8517 15.3803L11.7669 25.0768Z" stroke="black" stroke-width="0.749086"/>
<path d="M13.1546 10.6317C13.1546 12.8464 11.5561 14.5649 9.67407 14.5649C7.79203 14.5649 6.19352 12.8464 6.19352 10.6317C6.19352 8.41705 7.79203 6.69862 9.67407 6.69862C11.5561 6.69862 13.1546 8.41705 13.1546 10.6317Z" stroke="black" stroke-width="0.7969"/>
</svg>
