<svg width="19" height="27" viewBox="0 0 19 27" fill="none" xmlns="http://www.w3.org/2000/svg">
<path d="M14.6218 26.9928H4.06874C1.90362 26.9928 0.140869 25.0243 0.140869 22.6066V21.3894C0.140869 17.493 2.98085 14.3217 6.47016 14.3217H12.2204C15.7097 14.3217 18.5497 17.493 18.5497 21.3894V22.6066C18.5497 25.0243 16.7869 26.9928 14.6218 26.9928ZM6.47016 15.6363C3.62805 15.6363 1.31604 18.2181 1.31604 21.3918V22.609C1.31604 24.304 2.55082 25.6828 4.06874 25.6828H14.6218C16.1398 25.6828 17.3745 24.304 17.3745 22.609V21.3918C17.3745 18.2181 15.0625 15.6363 12.2204 15.6363H6.47016Z" fill="black"/>
<path d="M9.33562 12.5745C6.34309 12.5745 3.90686 9.85406 3.90686 6.51235C3.90686 3.17063 6.34309 0.450195 9.33562 0.450195C12.3282 0.450195 14.7644 3.17063 14.7644 6.51235C14.7644 9.85406 12.3282 12.5745 9.33562 12.5745ZM9.33562 1.88102C7.26113 1.88102 5.57302 3.959 5.57302 6.51235C5.57302 9.0657 7.26113 11.1437 9.33562 11.1437C11.4101 11.1437 13.0982 9.0657 13.0982 6.51235C13.0982 3.959 11.4101 1.88102 9.33562 1.88102Z" fill="black"/>
</svg>
