<svg width="76" height="90" viewBox="0 0 76 90" fill="none" xmlns="http://www.w3.org/2000/svg">
<path d="M34.3827 34.9662C36.3278 39.6656 37.7938 44.5221 38.2394 49.4151C38.2659 49.7035 38.3399 49.9994 38.5149 50.2305C38.6396 50.3952 38.8168 50.5115 38.9955 50.6151C42.3087 52.5358 46.4725 50.9585 49.9545 49.3642C53.3965 47.7881 56.6205 46.3666 59.845 44.3041C63.0778 42.2363 66.1856 39.9731 69.1453 37.5304C69.542 37.203 69.9626 36.8271 70.0421 36.3189C70.0867 36.0338 70.0156 35.7445 69.9406 35.4658C68.6343 30.6095 65.9972 26.1183 62.3929 22.6114C62.1188 22.3447 61.8187 22.0726 61.444 21.9961C61.1261 21.9312 60.7988 22.017 60.4863 22.1041C55.0919 23.606 49.3316 25.5397 44.5105 28.4449C41.1252 30.4849 37.7488 32.8049 34.3827 34.9662Z" stroke="#102831" stroke-width="2" stroke-linecap="round" stroke-linejoin="round"/>
<path d="M43.5768 51.1078C43.573 44.9169 40.3664 38.8139 35.2703 35.2986C35.1446 35.2119 34.9861 35.1234 34.8478 35.1883C34.7095 35.2532 34.7659 35.5354 34.9079 35.4791" stroke="#102831" stroke-width="2" stroke-linecap="round" stroke-linejoin="round"/>
<path d="M39.6262 60.4467C43.2646 61.9824 45.9851 65.2237 47.6133 68.8216C49.2415 72.4195 49.8882 76.3779 50.3304 80.3023C50.5441 82.1989 50.647 84.3295 49.413 85.7856C49.1873 86.0519 48.9131 86.2909 48.5817 86.4006M48.5817 86.4006C48.14 86.5468 47.6585 86.4472 47.2059 86.3396C44.5113 85.6986 41.877 84.804 39.3492 83.6717C39.5233 78.6143 39.6975 73.5568 39.8716 68.4994C39.9652 65.7817 40.0554 63.0263 39.4351 60.3784C48.8224 53.384 57.4726 48.7113 66.2141 43.7522C66.7105 43.4706 67.3457 43.6003 67.6724 44.0683C71.7689 49.938 75.0621 57.8357 74.0098 64.7937C73.8541 65.823 73.6187 66.8497 73.1746 67.7913C72.3218 69.5995 70.7701 70.9644 69.2605 72.275C64.66 76.2689 60.0448 80.2742 54.9863 83.6695C53.0364 84.9783 50.929 86.4708 48.5817 86.4006Z" stroke="#102831" stroke-width="2" stroke-linecap="round" stroke-linejoin="round"/>
<path d="M32.0342 11.5682C31.9647 9.56859 29.6318 8.17549 29.6265 6.17469C29.6246 5.45129 29.9398 4.76369 30.3203 4.14849C30.7651 3.42929 31.3225 2.75849 32.0485 2.32489C33.1162 1.68729 34.4997 1.63599 35.632 2.15019C36.7643 2.66439 37.6265 3.71719 37.954 4.91689C38.1122 5.49619 38.1557 6.11289 38.418 6.65309C38.6763 7.18499 39.1397 7.62819 39.246 8.20989" stroke="#102831" stroke-width="2" stroke-linecap="round" stroke-linejoin="round"/>
<path d="M29.4292 86.3601C30.7276 87.6918 33.7527 89.67 35.3954 88.7754C36.6335 88.1012 40.8183 85.3235 42.0896 84.7143" stroke="#102831" stroke-width="2" stroke-linecap="round" stroke-linejoin="round"/>
<path d="M18.7786 19.9226C13.4289 34.3767 13.9242 47.1204 15.6497 62.4358" stroke="#102831" stroke-width="2" stroke-linecap="round" stroke-linejoin="round"/>
<path d="M52.2194 4.94929C47.8789 2.74969 42.2664 0.768987 37.407 1.02189C32.5476 1.27479 27.6118 3.66399 25.2374 7.91139" stroke="#102831" stroke-width="2" stroke-linecap="round" stroke-linejoin="round"/>
<path d="M39.9824 8.28888C38.7952 7.19168 37.1373 6.80138 35.5591 6.45148C35.0177 6.33148 34.4755 6.21128 33.9264 6.13298C31.1673 5.73948 28.2654 6.45858 26.0093 8.09488" stroke="#102831" stroke-width="2" stroke-linecap="round" stroke-linejoin="round"/>
<path d="M33.0427 11.4924C31.1265 9.56017 28.4362 8.51907 25.729 8.24227C23.0219 7.96547 20.2861 8.40217 17.6548 9.09607C14.1746 10.0138 10.7371 11.4327 8.09323 13.8748C5.16053 16.5837 3.40633 20.3847 2.56333 24.287C1.72043 28.1893 1.7244 32.2217 1.8591 36.2118C2.0713 42.4999 2.59884 48.7774 3.43894 55.0128C3.72644 57.1467 4.05707 59.2997 4.87217 61.2927C6.55387 65.4044 10.1862 68.4791 14.2038 70.3744" stroke="#102831" stroke-width="2" stroke-linecap="round" stroke-linejoin="round"/>
<path d="M18.7787 19.9226C16.9039 16.8975 11.5812 15.414 8.38989 16.8263C5.99449 17.8864 4.37949 20.3901 3.02869 22.5239" stroke="#102831" stroke-width="2" stroke-linecap="round" stroke-linejoin="round"/>
<path d="M16.6701 18.1074C13.796 20.1104 12.9484 23.4574 12.5057 26.7446C11.7977 32.0027 11.774 37.3341 12.1254 42.6213C12.2998 45.2441 12.5681 47.8601 12.898 50.4677C13.1877 52.7576 13.3299 55.5367 15.0218 57.3173" stroke="#102831" stroke-width="2" stroke-linecap="round" stroke-linejoin="round"/>
<path d="M30.9243 24.9817C38.6055 21.344 46.6612 17.4317 55.3982 12.4623" stroke="#102831" stroke-width="2" stroke-linecap="round" stroke-linejoin="round"/>
<path d="M55.5549 12.4189C56.5602 12.4506 57.4274 13.4453 57.3218 14.4455" stroke="#102831" stroke-width="2" stroke-linecap="round" stroke-linejoin="round"/>
<path d="M44.7308 40.0371C49.8889 37.3983 55.828 34.2248 63.5304 29.6492" stroke="#102831" stroke-width="2" stroke-linecap="round" stroke-linejoin="round"/>
<path d="M63.6232 29.3731C64.1983 29.9164 64.5655 30.6745 64.6355 31.4626" stroke="#102831" stroke-width="2" stroke-linecap="round" stroke-linejoin="round"/>
<path d="M49.6069 64.2715C55.3775 60.7576 61.5264 56.7498 67.8209 51.2612" stroke="#102831" stroke-width="2" stroke-linecap="round" stroke-linejoin="round"/>
<path d="M67.6219 51.196C68.0165 50.8524 68.6109 51.2815 68.8967 51.7197C69.196 52.1785 69.4285 52.6808 69.5848 53.2059" stroke="#102831" stroke-width="2" stroke-linecap="round" stroke-linejoin="round"/>
<path d="M26.501 86.9999C28.9026 87.3044 31.6747 84.9083 31.6747 84.9083C32.0507 76.512 31.9467 67.7184 31.9014 59.3138" stroke="#102831" stroke-width="2" stroke-linecap="round" stroke-linejoin="round"/>
<path d="M26.501 86.9999C20.6397 84.3363 15.8786 79.8862 15.8786 79.8862C13.8173 71.7221 14.5927 62.8703 18.0421 55.189C18.2115 54.8117 18.952 54.0819 19.3105 53.8758C19.7532 53.6212 20.3079 53.7315 20.8019 53.8609C24.7293 54.8899 28.6533 56.8782 31.9015 59.3139C31.9015 59.3139 27.9498 64.6396 26.8165 73.4212C25.6831 82.2029 26.501 86.9999 26.501 86.9999Z" stroke="#102831" stroke-width="2" stroke-linecap="round" stroke-linejoin="round"/>
<path d="M19.5499 59.0773C21.8161 60.3757 23.8886 61.394 25.8069 62.1522" stroke="#102831" stroke-width="2" stroke-linecap="round" stroke-linejoin="round"/>
<path d="M26.483 62.3341C26.1388 62.93 25.9004 63.5868 25.7823 64.2647" stroke="#102831" stroke-width="2" stroke-linecap="round" stroke-linejoin="round"/>
<path d="M53.4618 71.7249C53.6254 71.4587 53.9814 71.2772 54.221 71.1373C58.2144 68.8052 62.0249 66.1226 65.5481 63.1259C66.3481 62.4455 67.1348 61.7494 67.9074 61.038C68.2937 60.6823 68.6765 60.3229 69.0557 59.9597C69.1848 59.8361 70.2186 58.9879 70.1824 58.8589C70.9177 61.482 71.6123 64.4586 70.2075 66.7928C69.6157 67.7761 68.7096 68.5231 67.8213 69.2498C63.9609 72.4078 60.1006 75.5659 56.2402 78.7239C55.7531 79.1209 55.2704 79.5266 54.7786 79.9159C55.0921 79.5529 55.1275 74.1757 53.7302 72.6387C53.5554 72.4451 53.35 72.2278 53.3765 71.9683C53.3855 71.88 53.4162 71.7991 53.4618 71.7249Z" stroke="#102831" stroke-width="2" stroke-linecap="round" stroke-linejoin="round"/>
<path d="M34.7413 88.8118C36.1464 77.7009 36.0552 67.3217 34.8821 56.1838C33.9615 47.4431 32.1766 38.5942 27.7122 31.0235C25.2435 26.8371 22.0213 23.1538 18.819 19.498C28.8827 13.3294 39.14 7.39998 52.2194 4.94928C56.4072 7.22858 59.6572 10.9632 62.0768 15.0715C64.4964 19.1798 66.4351 23.9378 68.0416 30.4178" stroke="#102831" stroke-width="2" stroke-linecap="round" stroke-linejoin="round"/>
<path d="M69.5892 37.1237C69.5892 37.1237 70.6182 42.5372 71.6235 51.0713" stroke="#102831" stroke-width="2" stroke-linecap="round" stroke-linejoin="round"/>
</svg>
