<svg xmlns="http://www.w3.org/2000/svg" fill="none" viewBox="11.75 -2.71 488.2 680.99">
<path d="M191.811 671.121C227.266 660.06 241.604 626.94 282.77 535.612C337.538 539.919 354 532 358 526.5" stroke="black" stroke-width="7.42516"/>
<path d="M15.4639 156.929C59.2536 148.858 72.5807 137.559 89.7154 119.803" stroke="black" stroke-width="7.42516"/>
<path d="M496.243 158.784C452.453 150.714 439.126 139.415 421.991 121.659" stroke="black" stroke-width="7.42516"/>
<path d="M18 156C26.5 146 57.5119 118.194 83.5 75.5" stroke="black" stroke-width="7.42516"/>
<path d="M80.434 77.1079C142.113 90.2058 223.368 88.2456 230.793 84.533C230.793 48.8923 228.318 38.7445 227.081 38.1258C239.671 41.3164 240.075 39.9824 247.5 38.1258C262.683 28.6662 277.279 4.5 277.279 4.5M279 89.5L277.201 1" stroke="black" stroke-width="7.42516"/>
<path d="M494.386 158.785C492.53 162.496 453.548 119.802 427.56 77.1079" stroke="black" stroke-width="7.42516"/>
<path d="M432 78C368.298 92.6763 275.471 91.486 278.053 87.004" stroke="black" stroke-width="7.42516"/>
<path d="M229 131C224.295 89.9301 91.2568 115.352 87.5 122" stroke="black" stroke-width="7.42516"/>
<path d="M284.626 128.955C289.276 94.5443 418.279 117.946 421.991 121.659" stroke="black" stroke-width="7.42516"/>
<path d="M288 124.5C281.32 119.015 277.54 162.7 279.064 260.879C277.411 343.221 277.851 384.245 279.064 455.79C294.015 504.689 309.901 520.679 356 529M228.943 129.083C234.958 475.175 227.086 632.137 202.947 635.85C178.808 639.563 175.102 595.012 150.971 617.287C126.84 639.563 141.69 687.826 191.809 671.12" stroke="black" stroke-width="7.42516"/>
<path d="M409.238 394.856C389.246 412.662 393.181 413.984 305.949 480.011C217.203 544.489 128.915 574.262 108.752 546.509C88.5885 518.757 144.186 443.99 232.932 379.512" stroke="white" stroke-width="3.71258"/>
<path d="M409.238 394.857C389.246 412.663 393.181 413.984 305.949 480.012C217.203 544.49 128.915 574.262 108.752 546.51C88.5885 518.758 144.186 443.991 232.932 379.513" stroke="black" stroke-width="3.71258"/>
<path d="M392.291 411.239C383.01 418.665 387.754 417.733 289.366 481.585C189.625 543.91 94.947 572.313 77.8957 545.025C60.8445 517.737 127.34 445.72 227.081 383.395" stroke="black" stroke-width="2.00522"/>
<path d="M468.577 407.939L476.183 405.168L461.239 355.532L481.461 335.31C484.513 332.259 484.513 327.332 481.461 324.28C478.409 321.229 473.483 321.229 470.431 324.28L450.209 344.502L398.439 329.35L395.059 335.31L434.776 358.082L413.858 381.154L395.904 379.208L393.369 383.433L412.168 391.838L420.795 409.629L426.31 405.168L422.308 388.759L446.606 369.912L468.577 407.939Z" fill="black"/>
</svg>