<svg width="116" height="116" viewBox="0 0 116 116" fill="none" xmlns="http://www.w3.org/2000/svg">
<path d="M46.2196 60.8429C45.2727 60.4674 44.3258 60.1083 43.3626 59.7654C40.8975 58.9002 38.1059 57.79 35.4776 57.6758C33.4043 57.5778 31.5268 58.7043 29.731 59.6022C27.6414 60.647 25.6987 61.9857 24.0009 63.5693C23.6254 63.9121 23.2498 64.2876 23.0703 64.761C23.005 64.9079 22.9724 65.0549 22.9561 65.2018C22.8908 65.561 22.9397 65.8875 23.0703 66.214C23.4621 67.2751 24.5887 68.2057 25.6171 68.8424C38.7263 77.1193 50.6928 87.6492 65.2713 92.9222C73.2054 95.7955 81.6293 97.0035 89.9715 98.1953C90.951 98.3259 92.1264 98.3912 92.7305 97.6239C93.2692 96.9382 93.0732 95.9587 92.812 95.1261C91.2774 90.1959 88.29 85.8696 84.6168 82.1964" stroke="#2E7275" stroke-width="2" stroke-linecap="round" stroke-linejoin="round"/>
<path d="M92.4497 97.9911C88.03 99.9868 83.1859 100.838 78.3743 101.442C74.304 101.953 70.1602 102.3 66.1131 101.629C62.6145 101.05 59.2823 99.7244 56.0714 98.2189C46.0379 93.5141 29.8163 80.9101 26.2157 75.4801C24.9978 72.3556 23.1645 68.551 22.9534 65.2042" stroke="#2E7275" stroke-width="2" stroke-linecap="round" stroke-linejoin="round"/>
<path d="M41.5178 77.1517C41.6158 76.4987 41.7301 75.7967 41.8281 75.1763C41.8934 74.7518 42.0402 74.2295 42.4647 74.1316C42.6769 74.0826 42.8893 74.1642 43.1015 74.2458C48.0807 76.2048 54.8557 78.0823 58.2187 82.229C59.0186 83.2085 60.4063 87.5999 60.9777 89.0855C60.9777 89.0855 62.4796 89.7222 63.3285 89.6406C64.6345 89.51 66.2834 88.7264 67.4262 88.0734C70.7239 86.1633 73.3849 84.09 76.0949 81.4943" stroke="#2E7275" stroke-width="2" stroke-linecap="round" stroke-linejoin="round"/>
<path d="M54.1374 66.2139H54.1211C50.0887 68.6953 46.1706 71.34 42.3178 74.1154" stroke="#2E7275" stroke-width="2" stroke-linecap="round" stroke-linejoin="round"/>
<path d="M66.8875 77.1517C64.8468 78.572 62.6919 80.3351 61.1247 82.033C60.9614 82.1963 62.8225 86.9796 63.1001 86.9632C65.6795 86.7183 70.7076 82.8655 73.4503 80.5147" stroke="#2E7275" stroke-width="2" stroke-linecap="round" stroke-linejoin="round"/>
<path d="M70.872 79.7422C70.0417 79.7419 69.2112 79.7416 68.3809 79.7413C68.3608 79.7413 68.3372 79.7432 68.3266 79.7603C68.316 79.7774 68.3419 79.8048 68.354 79.7887" stroke="#2E7275" stroke-width="2" stroke-linecap="round" stroke-linejoin="round"/>
<path d="M58.2024 17.744C41.42 28.8289 43.8198 54.1984 46.2196 60.8428C46.4971 61.6427 46.7747 62.1652 47.0359 62.3774C49.2235 64.1732 51.6233 65.218 54.1211 66.2138H54.1374C54.97 66.5403 55.8352 66.8668 56.7005 67.226" stroke="#2E7275" stroke-width="2" stroke-linecap="round" stroke-linejoin="round"/>
<path d="M58.1056 22.5099C64.9787 39.2196 83.0286 79.6355 85.357 83.602C74.8778 82.439 61.7926 76.5601 56.2151 66.365L58.1056 22.5099Z" stroke="#2E7275" stroke-width="2" stroke-linecap="round" stroke-linejoin="round"/>
<path d="M58.2069 23.3819C58.2721 21.804 58.2908 15.5421 58.3719 13.9998" stroke="#2E7275" stroke-width="2" stroke-linecap="round" stroke-linejoin="round"/>
<path d="M57.9315 72.3243C57.9146 71.3153 57.8979 70.2981 57.8817 69.2736" stroke="#2E7275" stroke-width="2" stroke-linecap="round" stroke-linejoin="round"/>
<path d="M27.3075 69.0976C28.4224 67.9329 33.801 64.3834 35.4069 64.0946C36.9105 63.8242 38.5077 64.3624 39.9171 64.8526C43.1996 65.9942 45.8909 67.1781 48.8446 69.0095" stroke="#2E7275" stroke-width="2" stroke-linecap="round" stroke-linejoin="round"/>
<path d="M57.7016 87.0717C57.0209 85.3124 56.3026 82.8127 53.2574 81.2855C53.0921 82.2485 52.9267 83.2115 52.7614 84.1745C52.7614 84.1745 57.4286 86.8166 57.7016 87.0717Z" stroke="#2E7275" stroke-width="2" stroke-linecap="round" stroke-linejoin="round"/>
<path d="M43.777 76.8365C45.5596 77.2146 49.3248 78.7239 51.0738 79.8004C51.4655 80.0415 50.8077 82.8388 50.6598 83.1454C50.3003 82.8819 43.5435 78.5774 43.5288 78.5461C43.5137 78.514 43.7321 76.8269 43.777 76.8365Z" stroke="#2E7275" stroke-width="2" stroke-linecap="round" stroke-linejoin="round"/>
</svg>
