<svg width="602" height="765" viewBox="0 0 602 765" fill="none" xmlns="http://www.w3.org/2000/svg">
<path d="M476.962 426.821C453.217 447.971 457.89 449.54 354.279 527.966C248.869 604.551 144.002 639.914 120.053 606.951C96.1041 573.988 162.141 485.181 267.552 408.596" stroke="white" stroke-width="4.75109"/>
<path d="M456.835 446.28C445.811 455.1 451.446 453.993 334.583 529.834C216.114 603.862 103.658 637.599 83.4046 605.187C63.1516 572.775 142.133 487.235 260.603 413.207" stroke="white" stroke-width="2.38175"/>
<path d="M541.175 448.383L550.209 445.091L532.459 386.135L556.478 362.116C560.103 358.491 560.103 352.64 556.478 349.015C552.854 345.39 547.002 345.39 543.377 349.015L519.358 373.034L457.867 355.037L453.852 362.116L501.027 389.163L476.181 416.568L454.856 414.256L451.845 419.275L474.174 429.258L484.421 450.39L490.972 445.091L486.218 425.601L515.079 403.216L541.175 448.383Z" fill="white"/>
<path d="M322.796 11C320.744 13.7014 287.751 64.6384 267.307 67.2692V114.449H87.8297C87.8297 114.449 59.3231 186.61 13 217.294C32.0155 216.812 67.9888 217.294 87.8297 186.771C90.0868 183.298 116.803 151.27 162.724 146.446C226.984 146.446 264.358 142.587 269.687 174.423C269.205 211.521 267.484 558.187 267.307 609.825C267.036 688.617 256.88 714.471 232.37 724.913C232.37 696.527 204.047 683.644 181.439 695.949C160.152 707.535 154.62 743.991 170.716 753.685C257.854 791.499 306.355 673.534 322.796 609.825C398.836 618.046 409.797 606.4 415.277 595.439C395.411 598.179 328.557 601.792 324.851 513.234C320.741 415.023 320.741 377.595 320.741 377.595C320.06 327.824 318.332 211.521 317.85 174.423C323.18 142.587 360.553 146.446 424.814 146.446C470.734 151.27 497.451 183.298 499.708 186.771C519.549 217.294 555.522 216.812 574.538 217.294C528.215 186.61 499.708 114.449 499.708 114.449H320.23L322.796 11Z" stroke="white" stroke-width="7.12664"/>
</svg>
