<svg xmlns="http://www.w3.org/2000/svg" fill="none" viewBox="21.87 6.41 44.09 45.14">
<g filter="url(#filter0_d_2012_460)">
<circle cx="41.6533" cy="26.1949" r="19.7813" fill="#1A202C"/>
</g>
<path d="M52.1002 31.4272C52.1002 33.0952 51.4365 34.6949 50.255 35.8743C49.0735 37.0537 47.4711 37.7163 45.8002 37.7163C44.1294 37.7163 42.527 37.0537 41.3455 35.8743C40.164 34.6949 39.5002 33.0952 39.5002 31.4272C39.5002 31.0688 39.538 30.7187 39.6031 30.3791H37.4002V38.7582C37.4002 39.341 37.8727 39.8127 38.4565 39.8127H53.146C53.4258 39.8121 53.694 39.7008 53.8916 39.5031C54.0893 39.3054 54.2003 39.0375 54.2002 38.7582V30.3791H51.9973C52.0625 30.7187 52.1002 31.0688 52.1002 31.4272ZM45.8002 35.62C46.3519 35.6198 46.8982 35.5112 47.4078 35.3003C47.9175 35.0894 48.3805 34.7804 48.7705 34.3909C49.1605 34.0014 49.4699 33.539 49.6809 33.0301C49.8919 32.5213 50.0004 31.9759 50.0002 31.4252C50.0001 30.8744 49.8913 30.3291 49.6801 29.8204C49.4688 29.3116 49.1592 28.8494 48.769 28.46C48.3788 28.0707 47.9156 27.7619 47.4059 27.5513C46.8962 27.3406 46.3498 27.2323 45.7981 27.2324C44.684 27.2327 43.6155 27.6748 42.8279 28.4615C42.0402 29.2482 41.5979 30.315 41.5981 31.4272C41.5984 32.5395 42.0413 33.6061 42.8293 34.3924C43.6174 35.1787 44.6861 35.6202 45.8002 35.62ZM50.8402 27.0249H53.3581C53.5254 27.0249 53.6859 26.9587 53.8044 26.8408C53.9229 26.7229 53.9897 26.563 53.9902 26.396V23.8825C53.9902 23.7151 53.9237 23.5546 53.8051 23.4363C53.6866 23.3179 53.5258 23.2515 53.3581 23.2515H50.8402C50.6726 23.2515 50.5118 23.3179 50.3933 23.4363C50.2747 23.5546 50.2081 23.7151 50.2081 23.8825V26.396C50.2102 26.7419 50.4937 27.0249 50.8402 27.0249ZM45.8002 11.3022C40.4535 11.3022 35.3257 13.4226 31.545 17.1967C27.7642 20.9709 25.6402 26.0898 25.6402 31.4272C25.6402 36.7647 27.7642 41.8836 31.545 45.6578C35.3257 49.4319 40.4535 51.5523 45.8002 51.5523C48.4477 51.5523 51.0692 51.0317 53.5151 50.0203C55.9611 49.009 58.1835 47.5266 60.0555 45.6578C61.9276 43.789 63.4125 41.5704 64.4257 39.1288C65.4388 36.6871 65.9603 34.0701 65.9603 31.4272C65.9603 28.7844 65.4388 26.1674 64.4257 23.7257C63.4125 21.2841 61.9276 19.0655 60.0555 17.1967C58.1835 15.3279 55.9611 13.8455 53.5151 12.8342C51.0692 11.8228 48.4477 11.3022 45.8002 11.3022ZM56.3002 39.58C56.3002 40.8608 55.2502 41.909 53.9671 41.909H37.6333C36.3502 41.909 35.3002 40.8608 35.3002 39.58V23.2745C35.3002 21.9937 36.3502 20.9455 37.6333 20.9455H53.9671C55.2502 20.9455 56.3002 21.9937 56.3002 23.2745V39.58Z" fill="white"/>
<defs>
<filter id="filter0_d_2012_460" x="0.677666" y="0.526265" width="81.9512" height="81.9511" filterUnits="userSpaceOnUse" color-interpolation-filters="sRGB">
<feFlood flood-opacity="0" result="BackgroundImageFix"/>
<feColorMatrix in="SourceAlpha" type="matrix" values="0 0 0 0 0 0 0 0 0 0 0 0 0 0 0 0 0 0 127 0" result="hardAlpha"/>
<feOffset dy="15.307"/>
<feGaussianBlur stdDeviation="10.5972"/>
<feColorMatrix type="matrix" values="0 0 0 0 0.0658854 0 0 0 0 0.0730469 0 0 0 0 0.1375 0 0 0 0.08 0"/>
<feBlend mode="normal" in2="BackgroundImageFix" result="effect1_dropShadow_2012_460"/>
<feBlend mode="normal" in="SourceGraphic" in2="effect1_dropShadow_2012_460" result="shape"/>
</filter>
</defs>
</svg>