<svg width="90" height="61" viewBox="0 0 90 61" fill="none" xmlns="http://www.w3.org/2000/svg">
<path d="M48.3048 6.04294C42.382 8.87854 33.9525 12.2978 32.3481 13.2719C30.1365 14.6147 21.713 28.7431 18.782 29.621C15.4864 30.6081 3.39924 34.7528 1.91994 35.3043C0.209443 35.942 1.21094 37.3971 2.29234 38.1853C11.3243 44.7685 20.3564 51.3518 29.3884 57.935C30.191 58.52 31.0367 59.1231 32.0197 59.2645C33.1616 59.4288 34.286 58.9443 35.338 58.4711C40.2426 56.2648 50.0465 50.8001 51.366 49.5849C55.8082 45.4937 59.7873 35.4594 62.3648 32.3675C64.1486 30.2277 81.2057 25.1401 88.9998 19.5162C79.8842 14.4585 70.7453 9.44284 61.5835 4.46944C60.117 3.67334 56.466 2.52054 56.466 2.52054" stroke="#8A525B" stroke-width="2" stroke-linecap="round" stroke-linejoin="round"/>
<path d="M28.1141 38.8555C28.6259 37.8943 29.4771 37.1194 30.5828 36.761C31.9941 36.3036 33.7078 36.7003 34.7807 37.7242C36.278 39.1531 35.7246 41.2837 34.9408 42.9302C34.4847 43.8884 33.9097 44.7868 33.3161 45.6643C32.9617 46.1882 32.6738 47.1911 32.0915 47.5109C31.377 47.9032 30.8485 46.995 30.3355 46.4481C29.1819 45.2182 28.1123 43.8117 27.7006 42.1462C27.422 41.0187 27.5901 39.8395 28.1141 38.8555Z" stroke="#8A525B" stroke-width="2" stroke-linecap="round" stroke-linejoin="round"/>
<path d="M30.4687 40.5284C30.5439 40.0679 30.7776 39.6128 31.0562 39.3632C31.2572 39.1831 31.5072 39.0471 31.7761 39.0251C32.5809 38.9593 32.8023 39.8177 32.7037 40.4494C32.6384 40.8681 32.4911 41.2899 32.1918 41.59C31.8682 41.9145 31.2491 42.0203 30.8625 41.7487C30.4815 41.4811 30.3913 41.0019 30.4687 40.5284Z" stroke="#8A525B" stroke-width="2" stroke-linecap="round" stroke-linejoin="round"/>
<path d="M48.7197 3.98053C49.0506 2.94303 49.7489 2.02794 50.7724 1.47694C52.0787 0.773636 53.8357 0.856336 55.075 1.67094C56.8044 2.80784 56.6425 5.00324 56.167 6.76364C55.8903 7.78814 55.4859 8.77514 55.0595 9.74504C54.8049 10.324 54.7017 11.3623 54.1862 11.7814C53.5538 12.2956 52.8708 11.497 52.2679 11.0511C50.9123 10.0483 49.6075 8.85663 48.9037 7.29213C48.4272 6.23293 48.3809 5.04263 48.7197 3.98053Z" stroke="#8A525B" stroke-width="2" stroke-linecap="round" stroke-linejoin="round"/>
<path d="M51.3363 5.20372C51.3277 4.73722 51.4758 4.24763 51.7051 3.95203C51.8705 3.73883 52.092 3.56012 52.3527 3.49022C53.1326 3.28102 53.5045 4.08572 53.5209 4.72492C53.5318 5.14852 53.4626 5.58992 53.2221 5.93892C52.962 6.31622 52.372 6.53143 51.9429 6.33373C51.52 6.13893 51.3452 5.68342 51.3363 5.20372Z" stroke="#8A525B" stroke-width="2" stroke-linecap="round" stroke-linejoin="round"/>
<path d="M32.5656 47.4858C33.6004 46.9768 34.5948 46.3858 35.5365 45.7202" stroke="#8A525B" stroke-width="2" stroke-linecap="round" stroke-linejoin="round"/>
<path d="M37.7454 43.7499C38.1391 43.122 38.4257 42.427 38.5892 41.7041" stroke="#8A525B" stroke-width="2" stroke-linecap="round" stroke-linejoin="round"/>
<path d="M39.1437 39.4215C39.0391 38.8881 39.0329 38.3356 39.1257 37.8001" stroke="#8A525B" stroke-width="2" stroke-linecap="round" stroke-linejoin="round"/>
<path d="M39.824 35.532C40.109 34.8221 40.5272 34.166 41.0505 33.608" stroke="#8A525B" stroke-width="2" stroke-linecap="round" stroke-linejoin="round"/>
<path d="M42.0952 31.4192C42.3857 31.1098 42.4752 30.6272 42.3151 30.2343" stroke="#8A525B" stroke-width="2" stroke-linecap="round" stroke-linejoin="round"/>
<path d="M41.6469 28.0331C41.4494 27.7023 41.3459 27.3161 41.3518 26.9309" stroke="#8A525B" stroke-width="2" stroke-linecap="round" stroke-linejoin="round"/>
<path d="M41.502 24.2859C41.459 23.86 41.5345 23.4227 41.7179 23.0358" stroke="#8A525B" stroke-width="2" stroke-linecap="round" stroke-linejoin="round"/>
<path d="M42.5271 20.6836L43.1108 20.3099" stroke="#8A525B" stroke-width="2" stroke-linecap="round" stroke-linejoin="round"/>
<path d="M45.4673 19.4384C45.9744 19.5448 46.5035 19.5452 47.0108 19.4396" stroke="#8A525B" stroke-width="2" stroke-linecap="round" stroke-linejoin="round"/>
<path d="M49.7284 19.0003C50.2402 19.0423 50.7649 18.9052 51.1907 18.6181" stroke="#8A525B" stroke-width="2" stroke-linecap="round" stroke-linejoin="round"/>
<path d="M53.551 17.6904C53.9286 17.6433 54.2915 17.4843 54.582 17.2385" stroke="#8A525B" stroke-width="2" stroke-linecap="round" stroke-linejoin="round"/>
<path d="M56.4998 15.3954C56.4696 15.0776 56.4394 14.7599 56.4092 14.442" stroke="#8A525B" stroke-width="2" stroke-linecap="round" stroke-linejoin="round"/>
<path d="M55.7583 12.597C55.3845 12.3394 54.9514 12.1684 54.5024 12.1013" stroke="#8A525B" stroke-width="2" stroke-linecap="round" stroke-linejoin="round"/>
<path d="M28.6043 44.3474C27.2098 45.4768 26.1674 47.3678 24.3763 47.4793C22.9882 47.5656 21.8363 46.5072 20.6246 45.8245C19.2909 45.073 17.7669 44.7499 16.312 44.2738C14.8571 43.7977 13.3862 43.1063 12.4997 41.8583C11.6132 40.6103 11.5373 38.6817 12.6904 37.6748C13.1777 37.2493 13.8146 37.0349 14.4489 36.9081C16.3709 36.524 18.3622 36.8587 20.3155 36.6963C22.2758 36.5333 23.8982 35.7283 25.0311 34.1125C26.2265 32.4076 25.4565 30.0962 26.22 28.1934C26.3118 27.9646 26.4295 27.7357 26.6243 27.5845C26.8948 27.3745 27.2597 27.3512 27.5946 27.2791C28.9264 26.9922 29.9129 25.8555 30.5603 24.6569C31.2078 23.4583 31.622 22.1352 32.3704 20.9969C33.1328 19.8374 34.2341 18.9035 35.5027 18.3409C36.3311 17.9735 37.2192 17.7643 38.1014 17.557C40.7375 16.9376 43.3921 16.3699 46.0151 15.6977C47.0205 15.4401 47.7958 15.065 48.8555 14.9644C50.2202 14.8348 51.5881 14.7391 52.9575 14.6773C58.3161 14.4357 63.6982 14.7138 69.0029 15.5099C70.5619 15.7439 72.3049 16.1468 73.118 17.4974C73.3494 17.8817 73.4857 18.3559 73.3441 18.7816C73.1094 19.4873 72.2101 19.7601 71.4819 19.6087C70.7537 19.4573 70.1295 19.0082 69.4606 18.683C67.0424 17.5075 64.0766 18.0199 61.7341 19.3398C59.3916 20.6597 57.5437 22.6877 55.7389 24.6808C55.0589 25.4317 54.3629 26.209 54.0204 27.1624C53.726 27.982 53.7152 28.8722 53.7077 29.743C53.6946 31.2551 53.6815 32.7672 53.6684 34.2792C53.6609 35.1427 53.6425 36.0491 53.2161 36.8001C52.9271 37.309 52.4736 37.7021 52.01 38.0593C50.0756 39.5499 47.8371 40.5855 45.6196 41.6085C43.9459 42.3806 42.2722 43.1527 40.5985 43.9248C39.8897 44.2518 39.1633 44.5836 38.3858 44.6535C36.6121 44.813 36.2546 44.1246 34.5136 43.7497" stroke="#8A525B" stroke-width="2" stroke-linecap="round" stroke-linejoin="round"/>
<path d="M33.9936 51.2785C32.6677 50.9701 31.1565 51.0831 30.3446 51.969C29.0923 53.3354 30.6539 55.0606 32.0655 55.3757C33.2714 55.6449 34.698 55.391 35.7044 54.6628C36.6059 54.0105 36.8286 52.894 35.915 52.1502C35.4435 51.7663 34.7486 51.4541 33.9936 51.2785Z" stroke="#8A525B" stroke-width="2" stroke-linecap="round" stroke-linejoin="round"/>
<path d="M35.3298 51.1807C35.5297 51.1495 35.7161 51.0388 35.8391 50.8782" stroke="#8A525B" stroke-width="2" stroke-linecap="round" stroke-linejoin="round"/>
<path d="M29.8855 50.9692L30.4772 51.2548" stroke="#8A525B" stroke-width="2" stroke-linecap="round" stroke-linejoin="round"/>
<path d="M30.1819 55.7231L30.7682 55.3535" stroke="#8A525B" stroke-width="2" stroke-linecap="round" stroke-linejoin="round"/>
<path d="M35.7665 55.075L36.2845 55.3622" stroke="#8A525B" stroke-width="2" stroke-linecap="round" stroke-linejoin="round"/>
</svg>
