<svg width="116" height="116" viewBox="0 0 116 116" fill="none" xmlns="http://www.w3.org/2000/svg">
<path d="M41.058 40.2903C54.788 48.9616 68.7848 58.015 83.0085 64.4812C86.3967 66.0215 89.8436 67.5624 92.7136 69.9335C97.6293 73.9956 103.499 80.6949 101.652 87.6787C100.288 92.8373 92.2435 92.6098 88.2059 91.7718C78.7544 89.8102 70.8506 82.335 63.0769 77.5553" stroke="#2E7275" stroke-width="2" stroke-linecap="round" stroke-linejoin="round"/>
<path d="M52.3977 63.6516C52.1921 63.7459 25.8664 73.5009 14 77.5502L15.5829 81.6727C16.5816 81.7817 43.2577 79.3664 58.3452 77.5718L69.0775 75.8737" stroke="#2E7275" stroke-width="2" stroke-linecap="round" stroke-linejoin="round"/>
<path d="M50.618 45.4964C52.9015 42.9193 57.2856 37.9603 57.2637 37.8685C57.2494 37.8084 54.6392 37.0692 54.409 37.1774C53.8681 37.4317 46.0005 40.8753 43.6268 41.6462" stroke="#2E7275" stroke-width="2" stroke-linecap="round" stroke-linejoin="round"/>
<path d="M42.5486 46.7883C41.6426 43.8225 39.117 31.8475 37.8235 29.0909C37.2997 27.9747 36.7396 27.0836 36.3876 26.682C35.1178 25.2334 33.156 23.844 31.1595 23.7672C31.5725 29.2185 31.7802 34.4881 32.1722 40.2043" stroke="#2E7275" stroke-width="2" stroke-linecap="round" stroke-linejoin="round"/>
<path d="M33.6592 24.9941C34.2105 30.8864 34.5498 36.8001 34.7618 42.1846" stroke="#2E7275" stroke-width="2" stroke-linecap="round" stroke-linejoin="round"/>
<path d="M32.8109 45.4963C28.0466 46.9059 22.3329 48.0634 17.5686 49.473C18.7869 50.8468 20.2268 52.296 21.6368 52.2969C23.3509 52.2981 32.9926 51.6997 39.0061 50.8495" stroke="#2E7275" stroke-width="2" stroke-linecap="round" stroke-linejoin="round"/>
<path d="M31.1595 52.2515C31.9145 53.7211 33.0129 55.2949 34.7146 57.2309C36.354 59.0961 38.1874 60.4379 40.1341 62.0107C42.545 63.9584 43.1664 64.5705 45.8797 66.0685" stroke="#2E7275" stroke-width="2" stroke-linecap="round" stroke-linejoin="round"/>
<path d="M84.5107 64.311C88.9695 57.0858 96.5422 46.0147 101.298 39.2551L97.1432 37.8624C90.1677 43.0483 75.9315 51.0522 68.3649 56.6215" stroke="#2E7275" stroke-width="2" stroke-linecap="round" stroke-linejoin="round"/>
<path d="M82.3492 77.5088C83.175 77.6805 84.0298 77.7114 84.8658 77.5996C85.8383 77.4696 86.7747 77.1502 87.6941 76.8075C90.2386 75.8593 92.9597 74.459 93.8437 71.8915C93.8776 71.7932 93.9243 71.6785 94.0259 71.6562C94.1171 71.6361 94.2025 71.7029 94.2721 71.7652C95.1238 72.5267 95.9754 73.2883 96.8271 74.0498C96.946 74.1561 97.0699 74.2698 97.1191 74.4215C97.175 74.5939 97.1235 74.7811 97.066 74.953C96.2351 77.4389 94.1288 79.3613 91.7274 80.4118C89.3261 81.4623 86.6487 81.7244 84.0283 81.6648L82.3492 77.5088Z" stroke="#2E7275" stroke-width="2" stroke-linecap="round" stroke-linejoin="round"/>
<path d="M31.4027 36.0408C27.142 34.8425 26.0361 36.86 26.7886 40.6451L28.2898 46.3818" stroke="#2E7275" stroke-width="2" stroke-linecap="round" stroke-linejoin="round"/>
<path d="M34.999 51.8608C36.854 55.7182 40.5608 58.0868 44.5251 60.7399C46.2994 61.9273 48.2867 63.1194 50.0483 64.3266" stroke="#2E7275" stroke-width="2" stroke-linecap="round" stroke-linejoin="round"/>
<path d="M66.8918 76.4122C71.331 79.6617 76.0537 82.5238 80.9873 84.958C85.6969 87.2816 91.3282 90.3871 96.6899 88.5031C97.9245 88.0693 99.0872 87.382 99.9617 86.4085C100.836 85.435 101.406 84.1615 101.411 82.8529" stroke="#2E7275" stroke-width="2" stroke-linecap="round" stroke-linejoin="round"/>
<path d="M29.7985 36.2161C28.6482 38.0494 30.3772 43.5556 31.1595 45.4964" stroke="#2E7275" stroke-width="2" stroke-linecap="round" stroke-linejoin="round"/>
<path d="M36.7824 87.202C36.0489 87.3184 35.3583 87.1781 34.9299 86.514C34.1696 85.3355 34.6584 83.5907 35.4026 82.5296C36.3278 81.2104 38.7833 79.4869 40.4578 80.3784C41.203 80.7751 41.4977 81.736 41.3693 82.5705C41.0325 84.7595 38.9577 86.8568 36.7824 87.202Z" stroke="#2E7275" stroke-width="2" stroke-linecap="round" stroke-linejoin="round"/>
<path d="M94.398 59.0153C93.6645 59.1317 92.9739 58.9914 92.5455 58.3273C91.7852 57.1488 92.274 55.404 93.0182 54.3429C93.9434 53.0237 96.3989 51.3002 98.0734 52.1917C98.8186 52.5884 99.1133 53.5493 98.9849 54.3838C98.6481 56.5728 96.5733 58.6701 94.398 59.0153Z" stroke="#2E7275" stroke-width="2" stroke-linecap="round" stroke-linejoin="round"/>
<path d="M83.9864 64.7757C85.0708 63.5398 87.2183 62.2143 88.7296 63.0189C89.4748 63.4156 89.7695 64.3765 89.6411 65.211C89.5376 65.8836 89.2699 66.5476 88.8857 67.1548" stroke="#2E7275" stroke-width="2" stroke-linecap="round" stroke-linejoin="round"/>
<path d="M53.6771 85.189C52.9436 85.3054 52.2528 85.1651 51.8244 84.501C51.0641 83.3225 51.553 81.5777 52.2972 80.5166C53.2224 79.1974 55.678 77.4739 57.3525 78.3654C58.0977 78.7621 58.3924 79.723 58.264 80.5575C57.9272 82.7465 55.8524 84.8438 53.6771 85.189Z" stroke="#2E7275" stroke-width="2" stroke-linecap="round" stroke-linejoin="round"/>
<path d="M52.1605 84.9775C50.2331 83.407 48.5905 81.4882 47.3359 79.3417" stroke="#2E7275" stroke-width="2" stroke-linecap="round" stroke-linejoin="round"/>
<path d="M35.4848 86.8888C33.456 85.4146 31.7375 83.5156 30.4725 81.3502" stroke="#2E7275" stroke-width="2" stroke-linecap="round" stroke-linejoin="round"/>
<path d="M98.607 52.6334C97.937 51.6903 96.3274 49.9075 95.2431 49.3024" stroke="#2E7275" stroke-width="2" stroke-linecap="round" stroke-linejoin="round"/>
<path d="M92.1635 58.0082C91.8665 57.7149 90.9714 56.7735 90.6745 56.4802C90.4956 56.3035 90.3028 56.0918 90.3235 55.8412" stroke="#2E7275" stroke-width="2" stroke-linecap="round" stroke-linejoin="round"/>
<path d="M89.3194 63.5243C89.2013 63.316 89.0788 63.1102 88.9479 62.9098C88.5174 62.2503 87.9974 61.6494 87.4066 61.1285C87.3578 61.0855 87.3084 61.043 87.2591 61.0005" stroke="#2E7275" stroke-width="2" stroke-linecap="round" stroke-linejoin="round"/>
</svg>
