<svg width="85" height="95" viewBox="0 0 85 95" fill="none" xmlns="http://www.w3.org/2000/svg">
<path d="M84.9073 47.4068C84.9073 73.5889 65.9001 94.8136 42.4536 94.8136C19.0071 94.8136 0 73.5889 0 47.4068C0 21.2248 19.0071 0 42.4536 0C65.9001 0 84.9073 21.2248 84.9073 47.4068Z" fill="#041F42"/>
<path d="M34.5236 39.751C33.2258 47.2066 37.5862 54.4254 44.2628 55.8747C50.9395 57.3239 57.4041 52.4548 58.7019 44.9991C59.9997 37.5435 55.6393 30.3247 48.9626 28.8755C42.286 27.4262 35.8214 32.2954 34.5236 39.751Z" stroke="white" stroke-width="0.689433" stroke-miterlimit="10"/>
<path d="M33.8254 39.5995C35.1978 31.7152 42.034 26.5626 49.0981 28.096C56.1623 29.6293 60.7728 37.2622 59.3997 45.1506C58.0266 53.039 51.1912 58.1874 44.127 56.654C41.9197 56.1749 39.9489 55.0992 38.3281 53.6039C38.3291 53.6634 38.3294 53.7271 38.3261 53.7899C38.3148 54.0288 38.2597 54.2582 38.1702 54.4675C39.8229 55.9104 41.792 56.9519 43.9884 57.4287C51.4216 59.0421 58.6455 53.6011 60.0904 45.3005C61.5353 37 56.6627 28.9333 49.2294 27.3198C41.7962 25.7063 34.5723 31.1474 33.1274 39.448C32.3226 44.0716 33.48 48.6214 35.9446 52.0235C36.1834 51.8933 36.4489 51.8281 36.7205 51.8363C34.2267 48.5803 33.0362 44.1333 33.8254 39.5995Z" fill="white" stroke="white" stroke-width="0.689433" stroke-miterlimit="10"/>
<path d="M37.9132 52.4547C38.1681 52.7768 38.3139 53.1812 38.3276 53.6034C39.9484 55.0987 41.9155 56.1737 44.1265 56.6536C51.187 58.1861 58.0261 53.0385 59.3992 45.1501C60.7723 37.2618 56.1618 29.6289 49.0976 28.0955C42.0334 26.5622 35.1981 31.7106 33.8249 39.599C33.0357 44.1329 34.2262 48.5798 36.72 51.8358C36.7383 51.8398 36.7544 51.8348 36.7733 51.8347C37.2159 51.863 37.6178 52.0814 37.9095 52.4539L37.9132 52.4547ZM34.5229 39.7505C35.8186 32.307 42.2961 27.4281 48.9619 28.8749C55.6278 30.3218 59.9969 37.5551 58.7012 44.9986C57.4055 52.4422 50.928 57.321 44.2622 55.8742C37.5963 54.4273 33.2272 47.1941 34.5229 39.7505Z" fill="white" stroke="white" stroke-width="0.689433" stroke-miterlimit="10"/>
<path d="M37.3844 53.7297C37.3944 53.5201 37.3313 53.3159 37.2072 53.1576C37.083 52.9994 36.9095 52.9067 36.7189 52.8908C36.6889 52.8885 36.6583 52.8903 36.6269 52.8962C36.8685 53.1858 37.1196 53.4647 37.3837 53.7338L37.3844 53.7297Z" fill="white" stroke="white" stroke-width="0.689433" stroke-miterlimit="10"/>
<path d="M23.6376 68.342C24.0802 68.3703 24.5029 68.208 24.8328 67.8815L37.7707 55.0622C37.9407 54.8916 38.0741 54.6919 38.1701 54.4671C38.0381 54.3538 37.9105 54.2371 37.7836 54.1164C37.7182 54.3182 37.6125 54.5113 37.4606 54.6647L24.5227 67.4838C24.0366 67.967 23.2865 67.9185 22.8545 67.3716C22.5989 67.0536 22.5129 66.6326 22.5804 66.2449C22.628 65.9715 22.753 65.7105 22.955 65.5088L35.893 52.6896C36.0071 52.5789 36.1308 52.4998 36.2656 52.4444C36.1569 52.3065 36.0489 52.1644 35.9445 52.0232C35.8142 52.0965 35.6883 52.1878 35.5779 52.2994L22.6399 65.1185C22.3653 65.3892 22.1859 65.7442 22.1156 66.1482C22.0161 66.7195 22.1591 67.2926 22.5007 67.7267C22.7931 68.0951 23.1986 68.3145 23.6369 68.3461L23.6376 68.342Z" fill="white" stroke="white" stroke-width="0.942883" stroke-miterlimit="10"/>
<path d="M37.3421 52.5981C37.127 52.3524 36.917 52.0993 36.72 51.8363C36.4484 51.8281 36.1829 51.8933 35.9441 52.0235C36.0484 52.1648 36.1565 52.3068 36.2652 52.4448C36.6208 52.2975 37.0248 52.3513 37.3428 52.594L37.3421 52.5981Z" fill="white" stroke="white" stroke-width="0.689433" stroke-miterlimit="10"/>
<path d="M38.3253 53.7899C38.3286 53.7271 38.3276 53.6675 38.3273 53.6039C38.0824 53.3771 37.8468 53.1397 37.6164 52.8949C37.8569 53.2562 37.9102 53.7124 37.7829 54.1168C37.9098 54.2375 38.0382 54.3501 38.1694 54.4675C38.2589 54.2583 38.3104 54.0281 38.3253 53.7899Z" fill="white" stroke="white" stroke-width="0.689433" stroke-miterlimit="10"/>
<path d="M37.6166 52.8948C37.8471 53.1396 38.0826 53.377 38.3276 53.6038C38.3146 53.1775 38.1681 52.7772 37.9132 52.4551C37.6208 52.0867 37.2152 51.8674 36.777 51.8358C36.7587 51.8319 36.739 51.8361 36.7237 51.837C36.925 52.0967 37.1307 52.3531 37.3458 52.5988C37.4228 52.6579 37.4983 52.725 37.56 52.8062C37.5813 52.8362 37.599 52.8655 37.6166 52.8948Z" fill="white" stroke="white" stroke-width="0.689433" stroke-miterlimit="10"/>
<path d="M37.6166 52.8948C37.5241 52.7943 37.4309 52.6978 37.3421 52.598C37.0247 52.3513 36.62 52.3015 36.2644 52.4488C36.382 52.6014 36.5039 52.7507 36.6265 52.8959C36.6572 52.8941 36.6878 52.8923 36.7185 52.8904C36.9062 52.9015 37.079 52.9983 37.2068 53.1573C37.331 53.3155 37.394 53.5198 37.3841 53.7294C37.5161 53.864 37.6496 53.9903 37.7868 54.1175C37.9141 53.7131 37.8614 53.2529 37.6202 52.8956L37.6166 52.8948Z" fill="white" stroke="white" stroke-width="0.689433" stroke-miterlimit="10"/>
<path d="M37.5599 52.8064C37.4944 52.7243 37.4224 52.6578 37.3453 52.5987C37.4343 52.6986 37.527 52.7993 37.6203 52.8959C37.5989 52.8658 37.5856 52.8332 37.5636 52.8072L37.5599 52.8064Z" fill="white" stroke="white" stroke-width="0.689433" stroke-miterlimit="10"/>
<path d="M24.2685 66.6964C24.3332 66.325 24.1153 65.9643 23.7828 65.8921C23.4502 65.8199 23.1272 66.0632 23.0625 66.4346C23.0306 66.6182 23.0672 66.7998 23.1556 66.946C23.2439 67.0922 23.3809 67.1982 23.5454 67.2339C23.878 67.3061 24.2009 67.0628 24.2656 66.6915L24.2685 66.6964Z" fill="black" stroke="white" stroke-width="0.689433" stroke-miterlimit="10"/>
</svg>
