<svg width="91" height="101" viewBox="0 0 91 101" fill="none" xmlns="http://www.w3.org/2000/svg">
<ellipse cx="45.186" cy="50.6277" rx="45.0254" ry="50.2786" fill="#90AEAE"/>
<path d="M36.7761 42.5086C35.3997 50.4159 40.0242 58.072 47.1053 59.609C54.1864 61.146 61.0426 55.9819 62.419 48.0747C63.7954 40.1674 59.1709 32.5113 52.0898 30.9742C45.0087 29.4372 38.1525 34.6014 36.7761 42.5086Z" stroke="black" stroke-width="0.731197" stroke-miterlimit="10"/>
<path d="M36.0361 42.3478C37.4916 33.9859 44.7418 28.5212 52.2339 30.1474C59.726 31.7737 64.6159 39.8689 63.1596 48.2352C61.7032 56.6014 54.4538 62.0617 46.9617 60.4354C44.6206 59.9273 42.5305 58.7864 40.8115 57.2005C40.8126 57.2637 40.8129 57.3312 40.8094 57.3978C40.7974 57.6512 40.739 57.8945 40.644 58.1165C42.3969 59.6468 44.4852 60.7514 46.8146 61.257C54.6982 62.9682 62.3597 57.1975 63.8921 48.3942C65.4245 39.5908 60.2568 31.0354 52.3732 29.3242C44.4896 27.613 36.8282 33.3837 35.2958 42.1871C34.4422 47.0908 35.6697 51.9162 38.2836 55.5244C38.5369 55.3863 38.8185 55.3172 39.1066 55.3258C36.4616 51.8726 35.199 47.1563 36.0361 42.3478Z" fill="white" stroke="black" stroke-width="0.731197" stroke-miterlimit="10"/>
<path d="M40.3717 55.9821C40.642 56.3238 40.7967 56.7526 40.8112 57.2005C42.5302 58.7863 44.6165 59.9264 46.9614 60.4354C54.4496 62.0608 61.703 56.6013 63.1593 48.2351C64.6156 39.8689 59.7258 31.7736 52.2337 30.1474C44.7416 28.5211 37.4921 33.9815 36.0358 42.3477C35.1987 47.1562 36.4614 51.8725 39.1063 55.3258C39.1256 55.33 39.1427 55.3247 39.1628 55.3245C39.6322 55.3546 40.0585 55.5863 40.3678 55.9813L40.3717 55.9821ZM36.7761 42.5084C38.1503 34.6139 45.0201 29.4395 52.0898 30.974C59.1594 32.5085 63.7932 40.1799 62.419 48.0744C61.0448 55.9689 54.1749 61.1433 47.1053 59.6087C40.0357 58.0742 35.4019 50.4028 36.7761 42.5084Z" fill="white" stroke="black" stroke-width="0.731197" stroke-miterlimit="10"/>
<path d="M39.8107 57.334C39.8212 57.1117 39.7544 56.895 39.6227 56.7272C39.491 56.5594 39.307 56.4611 39.1048 56.4442C39.073 56.4418 39.0405 56.4437 39.0072 56.45C39.2635 56.7571 39.5298 57.0529 39.8099 57.3383L39.8107 57.334Z" fill="white" stroke="black" stroke-width="0.731197" stroke-miterlimit="10"/>
<path d="M25.231 72.8317C25.7004 72.8618 26.1487 72.6896 26.4985 72.3433L40.2202 58.7475C40.4006 58.5666 40.542 58.3548 40.6438 58.1164C40.5039 57.9962 40.3685 57.8724 40.2339 57.7444C40.1645 57.9584 40.0524 58.1632 39.8914 58.3259L26.1697 71.9216C25.6542 72.434 24.8586 72.3826 24.4005 71.8026C24.1294 71.4653 24.0382 71.0188 24.1097 70.6076C24.1602 70.3176 24.2928 70.0409 24.5071 69.8269L38.2288 56.2312C38.3498 56.1137 38.481 56.0299 38.624 55.9711C38.5087 55.8248 38.3941 55.6741 38.2834 55.5244C38.1452 55.6021 38.0117 55.699 37.8946 55.8173L24.1729 69.413C23.8816 69.7001 23.6913 70.0766 23.6167 70.5051C23.5113 71.111 23.6629 71.7188 24.0252 72.1792C24.3353 72.5699 24.7654 72.8026 25.2302 72.8361L25.231 72.8317Z" fill="white" stroke="black" stroke-miterlimit="10"/>
<path d="M39.7662 56.1339C39.538 55.8733 39.3153 55.6048 39.1064 55.3259C38.8183 55.3173 38.5368 55.3864 38.2834 55.5245C38.3941 55.6743 38.5087 55.825 38.624 55.9713C39.0011 55.8151 39.4296 55.8722 39.7669 56.1296L39.7662 56.1339Z" fill="white" stroke="black" stroke-width="0.731197" stroke-miterlimit="10"/>
<path d="M40.809 57.3979C40.8126 57.3313 40.8115 57.2681 40.8112 57.2007C40.5514 56.9601 40.3016 56.7083 40.0572 56.4487C40.3122 56.8319 40.3688 57.3157 40.2338 57.7446C40.3684 57.8726 40.5045 57.9921 40.6437 58.1166C40.7387 57.8947 40.7932 57.6505 40.809 57.3979Z" fill="white" stroke="black" stroke-width="0.731197" stroke-miterlimit="10"/>
<path d="M40.0573 56.4488C40.3017 56.7084 40.5515 56.9602 40.8113 57.2007C40.7975 56.7486 40.6421 56.3241 40.3718 55.9824C40.0617 55.5917 39.6316 55.3592 39.1668 55.3257C39.1474 55.3215 39.1265 55.3259 39.1102 55.3269C39.3238 55.6023 39.5419 55.8742 39.77 56.1349C39.8516 56.1975 39.9318 56.2687 39.9972 56.3548C40.0198 56.3867 40.0386 56.4177 40.0573 56.4488Z" fill="white" stroke="black" stroke-width="0.731197" stroke-miterlimit="10"/>
<path d="M40.0574 56.4485C39.9593 56.3419 39.8605 56.2396 39.7663 56.1338C39.4297 55.8721 39.0005 55.8193 38.6234 55.9755C38.748 56.1373 38.8773 56.2957 39.0074 56.4497C39.0399 56.4477 39.0724 56.4458 39.1049 56.4439C39.304 56.4556 39.4873 56.5582 39.6228 56.7269C39.7545 56.8947 39.8214 57.1114 39.8108 57.3337C39.9509 57.4764 40.0925 57.6104 40.238 57.7453C40.3729 57.3164 40.3171 56.8283 40.0613 56.4494L40.0574 56.4485Z" fill="white" stroke="black" stroke-width="0.731197" stroke-miterlimit="10"/>
<path d="M39.9971 56.3546C39.9278 56.2676 39.8516 56.1973 39.77 56.1346C39.8642 56.2404 39.9622 56.3471 40.0611 56.4494C40.0385 56.4175 40.0244 56.3829 40.001 56.3554L39.9971 56.3546Z" fill="white" stroke="black" stroke-width="0.731197" stroke-miterlimit="10"/>
<path d="M25.9007 71.0863C25.9693 70.6924 25.7382 70.3098 25.3855 70.2333C25.0328 70.1567 24.6902 70.4148 24.6217 70.8086C24.5878 71.0034 24.6266 71.196 24.7203 71.351C24.814 71.5061 24.9594 71.6185 25.1338 71.6564C25.4865 71.7329 25.829 71.475 25.8976 71.0811L25.9007 71.0863Z" fill="black" stroke="black" stroke-width="0.731197" stroke-miterlimit="10"/>
</svg>
