<svg width="116" height="116" viewBox="0 0 116 116" fill="none" xmlns="http://www.w3.org/2000/svg">
<path d="M64.8267 83.6066C64.8267 83.6066 70.4649 82.3278 75.3813 78.9727" stroke="#2E7275" stroke-width="2" stroke-linecap="round" stroke-linejoin="round"/>
<path d="M51.6234 60.8677C51.6234 60.8677 57.2616 59.5889 62.178 56.2338" stroke="#2E7275" stroke-width="2" stroke-linecap="round" stroke-linejoin="round"/>
<path d="M31.6703 66.4996C31.3281 66.6137 31.0022 66.6952 30.6926 66.7603" stroke="#2E7275" stroke-width="2" stroke-linecap="round" stroke-linejoin="round"/>
<path d="M18.4703 53.6906C18.9592 56.8847 20.0998 60.144 21.9739 62.7351C23.8154 65.2936 27.4496 67.4774 30.6926 66.7603C31.0185 66.6951 31.3282 66.5973 31.6215 66.467" stroke="#2E7275" stroke-width="2" stroke-linecap="round" stroke-linejoin="round"/>
<path d="M64.1653 41.7617C64.1816 41.9736 64.2143 42.1854 64.2469 42.3973C64.638 44.5484 65.7461 46.3573 66.7076 48.1988C68.4839 51.621 69.9181 59.6715 70.1462 63.7782C70.4558 69.2701 67.8484 77.9398 62.5847 77.4672C61.3136 77.3531 60.1076 76.6687 58.9343 76.0005C56.881 74.8272 54.8275 73.6538 52.7742 72.4642C48.9445 70.2805 46.0438 65.033 43.9579 60.5678C42.5238 57.4715 38.792 51.9144 40.5032 48.3781C41.2528 46.8625 42.3936 45.3959 42.524 43.8314" stroke="#2E7275" stroke-width="2" stroke-linecap="round" stroke-linejoin="round"/>
<path d="M87.9581 67.8197C88.2677 67.1515 88.5774 66.4834 88.8544 65.7989C89.8485 63.4359 90.9402 61.0404 91.2336 58.4655C91.5106 55.9233 90.5981 53.5277 89.8159 51.1647C88.284 46.4876 86.7196 41.8269 84.8129 37.2802V37.2639" stroke="#2E7275" stroke-width="2" stroke-linecap="round" stroke-linejoin="round"/>
<path d="M81.8143 31.8697C81.8143 31.8697 81.8143 31.8534 81.798 31.8697" stroke="#2E7275" stroke-width="2" stroke-linecap="round" stroke-linejoin="round"/>
<path d="M69.2662 42.2668C70.0647 43.7824 70.8144 45.3794 71.4662 46.9276C73.2425 51.1647 74.2855 55.6625 75.247 60.144C75.687 62.1973 76.2574 63.7129 75.8337 65.8966C75.41 68.0966 74.4811 70.1663 73.6337 72.2359C72.1507 75.7722 70.3581 79.0641 68.0277 81.753C64.5403 85.8108 59.4232 82.2908 59.4232 82.2908C53.2306 78.836 47.0216 75.3811 40.8127 71.9263C37.7327 70.2152 34.6364 68.4878 31.6704 66.4996C31.6541 66.4996 31.6378 66.4996 31.6215 66.467C27.6289 63.8596 23.8643 60.8122 20.6376 56.8521C19.7576 55.7765 19.0895 54.7173 18.4703 53.6906C17.574 52.2402 16.7103 50.8713 15.3088 49.5839C12.4895 46.9765 14.4777 37.3616 18.8614 33.369C19.0081 33.2223 19.1546 33.0594 19.2524 32.8964" stroke="#2E7275" stroke-width="2" stroke-linecap="round" stroke-linejoin="round"/>
<path d="M94.0693 89.0049C94.3626 90.6671 94.4278 92.362 94.1671 93.9427C93.8412 95.882 92.8308 98.0005 90.973 98.8153C90.9621 98.8262 90.9512 98.8316 90.9404 98.8316C90.8752 98.8805 90.7937 98.8968 90.7285 98.9294C88.9522 99.565 86.9151 99.1087 85.2855 98.3101C81.0321 96.2568 78.4084 92.1664 77.3655 87.7663C76.8603 85.5826 76.681 83.2685 77.121 80.9707C77.1699 80.7263 77.2189 80.4655 77.3004 80.2211" stroke="#2E7275" stroke-width="2" stroke-linecap="round" stroke-linejoin="round"/>
<path d="M89.2781 87.4893C89.3759 87.8804 89.4411 88.2552 89.49 88.6463C89.5552 89.3307 89.6204 90.1457 89.4411 90.8464C89.3759 91.1071 89.2455 91.3516 89.1152 91.6123C88.9848 91.8567 88.8545 92.1175 88.6426 92.313C87.73 93.2093 86.3611 92.9322 85.4485 92.4759C83.5092 91.547 82.3196 89.6892 81.847 87.6848C81.6189 86.6907 81.5374 85.6478 81.7329 84.5885C81.7981 84.2137 81.9123 83.8226 82.1404 83.4803" stroke="#2E7275" stroke-width="2" stroke-linecap="round" stroke-linejoin="round"/>
<path d="M100.311 86.2346C100.571 90.0968 99.6426 92.8672 98.5345 94.0895C97.1656 95.6214 93.7597 98.0984 90.973 98.8155C90.9621 98.8263 90.9512 98.8318 90.9404 98.8318" stroke="#2E7275" stroke-width="2" stroke-linecap="round" stroke-linejoin="round"/>
<path d="M56.4246 33.4669C56.4246 33.4669 56.4246 33.4832 56.4083 33.4669" stroke="#2E7275" stroke-width="2" stroke-linecap="round" stroke-linejoin="round"/>
<path d="M57.598 40.2136C57.0439 41.2729 56.3921 42.104 56.3106 42.821C56.0662 44.8906 56.7831 46.8462 57.7283 48.4596C58.4616 49.7307 59.2276 51.067 59.9609 52.387C60.6779 53.6581 61.3135 55.0596 62.2424 56.0863C62.9268 56.8359 63.7744 57.3085 64.6055 57.7648C66.2025 58.6611 67.8158 59.5737 69.4291 60.47" stroke="#2E7275" stroke-width="2" stroke-linecap="round" stroke-linejoin="round"/>
<path d="M60.6617 28.8875C60.7921 33.9068 60.1727 35.9275 59.2438 36.9705" stroke="#2E7275" stroke-width="2" stroke-linecap="round" stroke-linejoin="round"/>
<path d="M19.057 24.6993C18.894 25.1393 18.7637 25.6771 18.6496 26.2475V26.2801C18.2422 28.366 18.177 30.9409 18.4866 31.8372C18.6333 32.2772 18.9103 32.6357 19.2525 32.8965C19.4481 33.0758 19.6762 33.2061 19.9207 33.3039C22.414 34.2817 24.777 35.6343 27.1237 36.9706C31.866 39.6758 36.983 43.5706 42.5238 43.8314C44.2512 43.9292 46.0275 43.6684 47.8364 42.9025C49.4334 42.2343 50.9979 41.501 52.5461 40.7351" stroke="#2E7275" stroke-width="2" stroke-linecap="round" stroke-linejoin="round"/>
<path d="M45.8032 38.3799C46.4613 38.2143 47.1366 37.9884 47.832 37.6948C50.9108 36.3944 53.9121 34.9104 56.8146 33.2535C58.853 32.0898 61.1353 30.1876 60.5756 27.9081C60.2352 26.5217 58.9355 25.6216 57.7321 24.8536C51.7459 21.0329 43.5861 16.4007 36.4955 16.7946C31.766 17.0573 27.3838 19.2361 23.1559 21.3718C21.8793 22.0167 20.5661 22.69 19.6453 23.7844C18.7245 24.8788 18.2909 26.5151 18.9905 27.7625C21.8462 28.7551 24.4916 30.2601 27.1186 31.7565C32.7868 34.9853 39.251 40.0283 45.8032 38.3799Z" stroke="#2E7275" stroke-width="2" stroke-linecap="round" stroke-linejoin="round"/>
<path d="M82.2817 23.1077C82.6841 22.1206 83.601 18.7369 84.131 18.0396C84.6204 17.3956 85.3307 17.8608 85.488 18.5095C85.709 19.4215 84.5216 22.7475 84.0306 23.7044" stroke="#2E7275" stroke-width="2" stroke-linecap="round" stroke-linejoin="round"/>
<path d="M60.3031 36.6772C60.2868 35.0639 60.4498 33.3038 61.1994 31.9675C61.9816 30.566 63.4158 29.5719 64.7032 28.6756C67.0662 27.046 69.7225 25.7585 72.3462 24.6178C74.2855 23.7541 76.3388 23.0045 78.4573 22.76C79.4025 22.6459 80.5105 22.4993 81.5372 22.6459C81.7979 22.6785 82.075 22.7926 82.3357 22.9555C82.6942 23.1674 83.0201 23.4607 83.2972 23.6725C83.6068 23.9169 83.9002 24.1777 84.1283 24.4873C84.3402 24.8132 84.3564 25.1392 84.389 25.5303C84.4705 26.3777 84.4216 27.2414 84.2749 28.0888C84.0793 29.1318 84.1119 30.2236 84.1282 31.2829V32.9288" stroke="#2E7275" stroke-width="2" stroke-linecap="round" stroke-linejoin="round"/>
<path d="M61.2972 39.3336C61.8513 39.8877 62.4216 40.4255 63.0408 40.9144C63.383 41.1751 63.7578 41.5011 64.1653 41.7618C64.589 42.0225 65.0128 42.2344 65.4528 42.2833C66.7076 42.43 67.9787 42.3322 69.2662 42.267C70.4395 42.2018 71.6292 42.1529 72.8025 42.3648C74.481 42.6581 76.3225 42.5441 78.0499 42.0389" stroke="#2E7275" stroke-width="2" stroke-linecap="round" stroke-linejoin="round"/>
<path d="M53.2239 40.9612C51.9243 41.0647 51.9912 39.0804 53.0765 38.7904C55.1259 38.2428 57.1447 37.5818 59.1826 36.9936C60.2771 36.6777 61.3754 36.3708 62.4843 36.109C63.0893 35.9662 64.9806 35.2796 65.3473 35.9764C65.607 36.4697 65.9495 37.6589 65.5276 38.1589C65.2956 38.4339 64.6518 38.4862 64.3121 38.5751C63.2107 38.8635 62.1062 39.14 60.9996 39.4076C58.652 39.9754 56.2786 40.5717 53.881 40.8885C53.6625 40.9174 53.4437 40.9437 53.2239 40.9612Z" stroke="#2E7275" stroke-width="2" stroke-linecap="round" stroke-linejoin="round"/>
<path d="M69.6125 25.9866C73.5797 26.2722 77.3596 28.5111 79.5164 31.8531" stroke="#2E7275" stroke-width="2" stroke-linecap="round" stroke-linejoin="round"/>
<path d="M83.9329 32.7172C83.9546 32.7172 83.9655 32.7226 83.9655 32.7335" stroke="#2E7275" stroke-width="2" stroke-linecap="round" stroke-linejoin="round"/>
<path d="M82.9551 32.0328C82.1729 31.5113 81.2928 31.0387 80.4128 31.1202C78.1476 31.3483 76.5831 34.135 75.8498 35.9765C75.4913 36.8891 75.2305 38.1765 75.3609 39.3499C75.4913 40.4418 76.6483 41.1751 77.7565 41.7455H77.7729" stroke="#2E7275" stroke-width="2" stroke-linecap="round" stroke-linejoin="round"/>
<path d="M76.9656 39.8012C77.0945 40.8803 77.5684 41.8771 78.6352 42.4414C82.2607 44.3594 84.5892 39.2636 84.9189 36.6421C85.0167 35.864 85.019 35.0513 84.7942 34.263C84.3091 32.5615 82.9763 31.5339 81.3011 31.9426C79.4338 32.3981 78.1062 34.7696 77.4571 36.4237C77.0964 37.3429 76.8247 38.6213 76.9656 39.8012Z" stroke="#2E7275" stroke-width="2" stroke-linecap="round" stroke-linejoin="round"/>
<path d="M94.7975 89.0244C95.0051 89.0135 95.2131 88.9923 95.4214 88.9598C96.9167 88.7269 98.2683 87.9266 99.4507 86.9821C100.44 86.1915 101.363 85.2561 101.845 84.0845C102.476 82.5476 101.571 71.579 91.7018 68.5658C80.0064 64.9952 75.9786 74.5334 74.6979 76.8748C74.5296 77.1826 74.3701 77.5397 74.4795 77.873C74.5602 78.1189 74.7709 78.2958 74.9729 78.4576C79.189 81.8354 83.8339 84.6474 88.623 87.1471C90.5526 88.1543 92.6537 89.1372 94.7975 89.0244Z" stroke="#2E7275" stroke-width="2" stroke-linecap="round" stroke-linejoin="round"/>
</svg>
