<svg width="35" height="32" viewBox="0 0 35 32" fill="none" xmlns="http://www.w3.org/2000/svg">
<path d="M15.7758 1.20405C16.4082 -0.337884 18.5918 -0.337884 19.2242 1.20405L22.4374 9.03826C22.7051 9.69097 23.3184 10.1366 24.0219 10.1895L32.4655 10.8244C34.1274 10.9494 34.8022 13.0262 33.5312 14.1041L27.0733 19.5809C26.5353 20.0372 26.301 20.7582 26.4681 21.4436L28.4735 29.6702C28.8682 31.2894 27.1015 32.5729 25.6836 31.6972L18.4793 27.2478C17.879 26.8771 17.121 26.8771 16.5207 27.2478L9.31643 31.6972C7.89847 32.5729 6.13184 31.2894 6.52654 29.6702L8.5319 21.4436C8.69898 20.7582 8.46471 20.0372 7.92668 19.5809L1.46881 14.1041C0.197768 13.0262 0.872561 10.9494 2.53446 10.8244L10.9781 10.1895C11.6816 10.1366 12.2949 9.69097 12.5626 9.03826L15.7758 1.20405Z" fill="#F4DD31"/>
</svg>
