<svg xmlns="http://www.w3.org/2000/svg" fill="none" viewBox="21.76 6.41 42.88 45.14">
<g filter="url(#filter0_d_2012_457)">
<circle cx="41.5412" cy="26.1949" r="19.7813" fill="#1A202C"/>
</g>
<path d="M44.4801 11.3022C33.3459 11.3022 24.3201 20.3124 24.3201 31.4272C24.3201 42.5421 33.3459 51.5523 44.4801 51.5523C55.6143 51.5523 64.6401 42.5421 64.6401 31.4272C64.6401 20.3124 55.6143 11.3022 44.4801 11.3022ZM52.6806 27.788C52.689 27.9599 52.6911 28.1318 52.6911 28.2995C52.6911 33.5404 48.699 39.58 41.3952 39.58C39.237 39.5836 37.1237 38.9648 35.3094 37.7981C35.6181 37.8358 35.9352 37.8505 36.2565 37.8505C38.1171 37.8505 39.8286 37.2195 41.1873 36.1545C40.3593 36.1383 39.557 35.8646 38.8923 35.3716C38.2275 34.8786 37.7333 34.1908 37.4787 33.4041C38.0733 33.517 38.6859 33.4933 39.27 33.3349C38.3713 33.1535 37.5631 32.6674 36.9825 31.959C36.4019 31.2506 36.0845 30.3636 36.0843 29.4483V29.4001C36.6198 29.6957 37.233 29.8759 37.884 29.8969C37.0415 29.337 36.4451 28.477 36.2167 27.4927C35.9884 26.5084 36.1453 25.4741 36.6555 24.6015C37.6529 25.8258 38.8968 26.8273 40.3065 27.5413C41.7163 28.2552 43.2605 28.6656 44.8392 28.746C44.6385 27.8955 44.7249 27.0027 45.0849 26.2063C45.445 25.4099 46.0585 24.7545 46.8302 24.3421C47.6018 23.9297 48.4883 23.7834 49.3519 23.9258C50.2155 24.0682 51.0077 24.4915 51.6054 25.1298C52.4941 24.9543 53.3463 24.6289 54.1254 24.1676C53.8292 25.0861 53.2091 25.866 52.3803 26.3625C53.1675 26.2678 53.9361 26.0566 54.6609 25.7356C54.1285 26.532 53.4579 27.2271 52.6806 27.788Z" fill="white"/>
<defs>
<filter id="filter0_d_2012_457" x="0.56559" y="0.526265" width="81.9512" height="81.9511" filterUnits="userSpaceOnUse" color-interpolation-filters="sRGB">
<feFlood flood-opacity="0" result="BackgroundImageFix"/>
<feColorMatrix in="SourceAlpha" type="matrix" values="0 0 0 0 0 0 0 0 0 0 0 0 0 0 0 0 0 0 127 0" result="hardAlpha"/>
<feOffset dy="15.307"/>
<feGaussianBlur stdDeviation="10.5972"/>
<feColorMatrix type="matrix" values="0 0 0 0 0.0658854 0 0 0 0 0.0730469 0 0 0 0 0.1375 0 0 0 0.08 0"/>
<feBlend mode="normal" in2="BackgroundImageFix" result="effect1_dropShadow_2012_457"/>
<feBlend mode="normal" in="SourceGraphic" in2="effect1_dropShadow_2012_457" result="shape"/>
</filter>
</defs>
</svg>